<svg xmlns="http://www.w3.org/2000/svg" viewBox="0 0 1774.96 246.56"><defs><style>.cls-1{fill:#b7b7b7;isolation:isolate;}.cls-2{fill:#222;}</style></defs><g id="Layer_2" data-name="Layer 2"><g id="Layer_1-2" data-name="Layer 1"><g id="Group_338" data-name="Group 338"><path id="Path_237" data-name="Path 237" class="cls-1" d="M966.48,31a37.29,37.29,0,0,1,37,37.45,15.27,15.27,0,0,0,30.53,0,67.57,67.57,0,0,0-135.12-1.67V174.16A67.57,67.57,0,0,0,1034,175.82c0-.55,0-1.11,0-1.66a15.27,15.27,0,1,0-30.53,0h0a37,37,0,0,1-74.06.34V68.4A37.28,37.28,0,0,1,966.48,31Z"/><path id="Path_238" data-name="Path 238" class="cls-1" d="M1336.23,1.21A15.39,15.39,0,0,0,1321,16.64V175.29a37,37,0,1,1-37-37.45,15.44,15.44,0,0,0,0-30.88A68.32,68.32,0,1,0,1351.49,176c0-.26,0-.51,0-.76V16.64A15.38,15.38,0,0,0,1336.23,1.21Z"/><path id="Path_239" data-name="Path 239" class="cls-1" d="M1123.81,110.53a67.56,67.56,0,1,0,0,135.12h0a15.27,15.27,0,0,0,0-30.53,37,37,0,1,1,37-37v52.81a15.27,15.27,0,1,0,30.53,0V178.08A67.68,67.68,0,0,0,1123.81,110.53Z"/><path id="Path_240" data-name="Path 240" class="cls-1" d="M1603.06,215.38h-52.82a37,37,0,1,1,37-37,15.27,15.27,0,1,0,30.53.77c0-.25,0-.51,0-.77a67.56,67.56,0,1,0-67.55,67.57h52.82a15.27,15.27,0,1,0,.79-30.53h-.8Z"/><path id="Path_241" data-name="Path 241" class="cls-1" d="M1445.53,110.53A67.67,67.67,0,0,0,1378,178.09V230.9a15.26,15.26,0,0,0,30.52.78q0-.39,0-.78V178.08a37.07,37.07,0,0,1,37-37,15.27,15.27,0,0,0,0-30.53Z"/><path id="Path_242" data-name="Path 242" class="cls-2" d="M403.45,107.69a15.44,15.44,0,0,0,0,30.88,37.45,37.45,0,1,1-37,37.85c0-.13,0-.27,0-.41V17.36a15.26,15.26,0,0,0-30.52,0V176a67.55,67.55,0,1,0,67.55-68.31Z"/><path id="Path_243" data-name="Path 243" class="cls-2" d="M237.44,107.69a15.44,15.44,0,0,0,0,30.88,37.45,37.45,0,1,1-37,37.85V17.36a15.27,15.27,0,0,0-30.53,0V176a67.56,67.56,0,1,0,67.56-68.31Z"/><path id="Path_244" data-name="Path 244" class="cls-2" d="M518.76,109.21a15.27,15.27,0,0,0-15.27,15.27h0V229.07a15.27,15.27,0,1,0,30.53.77c0-.26,0-.51,0-.77V124.48A15.27,15.27,0,0,0,518.76,109.21Z"/><path id="Path_245" data-name="Path 245" class="cls-2" d="M69.11,1.93A68,68,0,0,0,1.54,70.24,15.27,15.27,0,1,0,32.07,71c0-.25,0-.51,0-.77a37,37,0,1,1,74.05-.34V176a37,37,0,1,1-37-37.44,15.44,15.44,0,0,0,0-30.88,68.32,68.32,0,1,0,67.55,69.09c0-.26,0-.52,0-.78V70.24A68,68,0,0,0,69.11,1.93Z"/><circle id="Ellipse_282" data-name="Ellipse 282" class="cls-2" cx="517.95" cy="18.19" r="15.27"/><path id="Path_246" data-name="Path 246" class="cls-2" d="M691.08,124.48a15.27,15.27,0,0,0-15.27-15.27h0a67.6,67.6,0,0,0-67.49,66.32c0,.41-.12.81-.12,1.23a37.08,37.08,0,0,1-37,37,15.27,15.27,0,0,0,0,30.53A67.61,67.61,0,0,0,638.66,178c0-.42.12-.81.12-1.24a37.08,37.08,0,0,1,37-37A15.26,15.26,0,0,0,691.08,124.48Z"/><path id="Path_247" data-name="Path 247" class="cls-2" d="M794.34,109.21a67.6,67.6,0,0,0-67.49,66.27c0,.43-.14.85-.14,1.29a37.06,37.06,0,0,1-37,37,15.27,15.27,0,0,0,0,30.53,67.6,67.6,0,0,0,67.49-66.28c0-.43.13-.84.13-1.29a37.08,37.08,0,0,1,37-37,15.27,15.27,0,0,0,.8-30.52Z"/><path id="Path_248" data-name="Path 248" class="cls-1" d="M1760.09,109.21a67.61,67.61,0,0,0-67.5,66.27c0,.43-.13.85-.13,1.29a37.07,37.07,0,0,1-37,37,15.27,15.27,0,0,0-.79,30.53h.79a67.6,67.6,0,0,0,67.49-66.28c0-.43.14-.84.14-1.29a37.08,37.08,0,0,1,37-37,15.27,15.27,0,0,0,0-30.52Z"/></g></g></g></svg>
