<?xml version="1.0" encoding="utf-8"?>
<!-- Generator: Adobe Illustrator 26.4.1, SVG Export Plug-In . SVG Version: 6.00 Build 0)  -->
<svg version="1.1" id="Layer_1" xmlns="http://www.w3.org/2000/svg" xmlns:xlink="http://www.w3.org/1999/xlink" x="0px" y="0px"
	 viewBox="0 0 500 139.18" style="enable-background:new 0 0 500 139.18;" xml:space="preserve">
<style type="text/css">
	.st0{fill:#FFFFFF;}
	.st1{clip-path:url(#SVGID_00000062888007952330378230000010461918364112195204_);}
	.st2{clip-path:url(#SVGID_00000141439331608858473360000002969837796330941843_);fill:#FFFFFF;}
	.st3{clip-path:url(#SVGID_00000141439331608858473360000002969837796330941843_);fill:#00E1C4;}
</style>
<g>
	<g>
		<g>
			<path class="st0" d="M192.36,45.11l4.87-13.84h0.97l4.87,13.84h-1.01l-2.77-8.15c-0.28-0.83-0.55-1.62-0.8-2.38
				c-0.25-0.76-0.5-1.56-0.73-2.4h-0.08c-0.24,0.84-0.48,1.64-0.73,2.4c-0.25,0.76-0.52,1.56-0.8,2.38l-2.81,8.15H192.36z
				 M194.59,40.36v-0.82h6.19v0.82H194.59z"/>
			<path class="st0" d="M209.37,45.11V35.03h0.8l0.08,1.55h0.06c0.45-0.52,0.95-0.95,1.5-1.29c0.55-0.34,1.11-0.51,1.67-0.51
				c0.83,0,1.45,0.19,1.88,0.56c0.43,0.37,0.73,0.87,0.91,1.5c0.57-0.64,1.14-1.15,1.71-1.51c0.57-0.36,1.14-0.55,1.71-0.55
				c1.01,0,1.76,0.32,2.27,0.96c0.5,0.64,0.76,1.61,0.76,2.91v6.47h-0.95v-6.34c0-1.08-0.18-1.87-0.54-2.38
				c-0.36-0.51-0.93-0.77-1.71-0.77c-0.48,0-0.96,0.16-1.45,0.47c-0.49,0.31-1.02,0.79-1.58,1.42v7.6h-0.92v-6.34
				c0-1.08-0.18-1.87-0.55-2.38c-0.36-0.51-0.94-0.77-1.72-0.77c-0.9,0-1.9,0.63-3.02,1.89v7.6H209.37z"/>
			<path class="st0" d="M230.24,45.36c-0.87,0-1.65-0.21-2.35-0.63s-1.26-1.03-1.68-1.82c-0.42-0.79-0.63-1.73-0.63-2.82
				c0-1.11,0.21-2.05,0.63-2.85c0.42-0.79,0.96-1.4,1.63-1.83c0.66-0.43,1.38-0.64,2.13-0.64c0.8,0,1.49,0.18,2.07,0.55
				c0.58,0.36,1.03,0.89,1.33,1.59c0.31,0.69,0.46,1.54,0.46,2.53c0,0.11,0,0.23-0.01,0.37c-0.01,0.13-0.02,0.27-0.05,0.41h-7.62
				v-0.8h6.8c0-1.29-0.27-2.25-0.8-2.89c-0.53-0.64-1.25-0.96-2.16-0.96c-0.56,0-1.11,0.16-1.64,0.48
				c-0.53,0.32-0.97,0.82-1.31,1.48c-0.34,0.67-0.51,1.5-0.51,2.51c0,0.92,0.17,1.73,0.5,2.4c0.34,0.68,0.79,1.2,1.36,1.55
				s1.22,0.54,1.93,0.54c0.55,0,1.05-0.07,1.5-0.22s0.86-0.35,1.21-0.6l0.38,0.65c-0.39,0.27-0.83,0.5-1.32,0.69
				C231.6,45.26,230.99,45.36,230.24,45.36z"/>
			<path class="st0" d="M236.57,45.11V35.03h0.8l0.08,1.55h0.06c0.45-0.52,0.95-0.95,1.5-1.29c0.55-0.34,1.11-0.51,1.67-0.51
				c0.83,0,1.45,0.19,1.88,0.56c0.43,0.37,0.73,0.87,0.91,1.5c0.57-0.64,1.14-1.15,1.71-1.51c0.57-0.36,1.14-0.55,1.71-0.55
				c1.01,0,1.76,0.32,2.27,0.96c0.5,0.64,0.76,1.61,0.76,2.91v6.47h-0.95v-6.34c0-1.08-0.18-1.87-0.54-2.38
				c-0.36-0.51-0.93-0.77-1.71-0.77c-0.48,0-0.96,0.16-1.45,0.47c-0.49,0.31-1.02,0.79-1.58,1.42v7.6h-0.92v-6.34
				c0-1.08-0.18-1.87-0.55-2.38c-0.36-0.51-0.94-0.77-1.72-0.77c-0.9,0-1.9,0.63-3.02,1.89v7.6H236.57z"/>
			<path class="st0" d="M257.57,45.36c-0.48,0-0.98-0.12-1.5-0.35c-0.53-0.23-1.03-0.54-1.52-0.93h-0.04l-0.11,1.03h-0.78v-15.1
				h0.92v4.37l-0.04,1.97c0.52-0.43,1.07-0.81,1.67-1.11c0.59-0.31,1.19-0.46,1.8-0.46c0.91,0,1.66,0.21,2.26,0.63
				c0.6,0.42,1.04,1.02,1.34,1.79c0.3,0.77,0.45,1.68,0.45,2.73c0,1.13-0.21,2.11-0.62,2.92c-0.41,0.81-0.96,1.44-1.63,1.87
				C259.1,45.14,258.36,45.36,257.57,45.36z M257.52,44.54c0.69,0,1.29-0.2,1.82-0.59c0.53-0.39,0.94-0.93,1.24-1.63
				c0.3-0.69,0.45-1.49,0.45-2.4c0-0.83-0.1-1.56-0.31-2.22c-0.21-0.65-0.55-1.17-1.02-1.54c-0.47-0.38-1.09-0.57-1.86-0.57
				c-0.5,0-1.03,0.14-1.58,0.42c-0.55,0.28-1.12,0.69-1.72,1.24v5.98c0.56,0.48,1.1,0.81,1.63,1.01
				C256.69,44.44,257.15,44.54,257.52,44.54z"/>
			<path class="st0" d="M268.82,45.36c-0.87,0-1.65-0.21-2.35-0.63c-0.7-0.42-1.26-1.03-1.68-1.82s-0.63-1.73-0.63-2.82
				c0-1.11,0.21-2.05,0.63-2.85s0.96-1.4,1.63-1.83c0.67-0.43,1.38-0.64,2.13-0.64c0.8,0,1.49,0.18,2.07,0.55
				c0.58,0.36,1.03,0.89,1.33,1.59c0.31,0.69,0.46,1.54,0.46,2.53c0,0.11,0,0.23-0.01,0.37c-0.01,0.13-0.03,0.27-0.05,0.41h-7.62
				v-0.8h6.8c0-1.29-0.27-2.25-0.8-2.89c-0.53-0.64-1.25-0.96-2.16-0.96c-0.56,0-1.11,0.16-1.64,0.48
				c-0.53,0.32-0.97,0.82-1.31,1.48c-0.34,0.67-0.51,1.5-0.51,2.51c0,0.92,0.17,1.73,0.5,2.4c0.34,0.68,0.79,1.2,1.37,1.55
				c0.57,0.36,1.22,0.54,1.93,0.54c0.55,0,1.05-0.07,1.5-0.22c0.45-0.15,0.86-0.35,1.21-0.6l0.38,0.65
				c-0.39,0.27-0.83,0.5-1.32,0.69S269.56,45.36,268.82,45.36z"/>
			<path class="st0" d="M275.14,45.11V35.03h0.8l0.08,1.87h0.06c0.32-0.62,0.72-1.12,1.21-1.52c0.48-0.4,1.03-0.6,1.65-0.6
				c0.18,0,0.35,0.01,0.51,0.04c0.16,0.03,0.33,0.08,0.49,0.17l-0.25,0.8c-0.14-0.04-0.27-0.07-0.39-0.09s-0.28-0.03-0.49-0.03
				c-0.45,0-0.92,0.19-1.42,0.58c-0.5,0.39-0.94,1.05-1.33,2.01v6.87H275.14z"/>
			<path class="st0" d="M289.67,45.36c-0.8,0-1.54-0.21-2.24-0.62c-0.69-0.41-1.25-1.01-1.66-1.81c-0.41-0.79-0.62-1.74-0.62-2.85
				c0-1.12,0.21-2.08,0.62-2.88c0.41-0.8,0.97-1.4,1.66-1.82c0.69-0.41,1.44-0.62,2.24-0.62c0.81,0,1.56,0.21,2.25,0.62
				c0.69,0.41,1.24,1.02,1.66,1.82s0.63,1.76,0.63,2.88c0,1.11-0.21,2.05-0.63,2.85s-0.97,1.39-1.66,1.81
				C291.23,45.15,290.49,45.36,289.67,45.36z M289.67,44.54c0.69,0,1.3-0.19,1.84-0.56c0.54-0.37,0.96-0.89,1.27-1.56
				s0.46-1.45,0.46-2.33s-0.15-1.66-0.46-2.34s-0.73-1.21-1.27-1.59c-0.54-0.38-1.15-0.57-1.84-0.57c-0.67,0-1.27,0.19-1.81,0.57
				c-0.53,0.38-0.96,0.91-1.27,1.59c-0.31,0.68-0.47,1.46-0.47,2.34s0.16,1.66,0.47,2.33c0.32,0.67,0.74,1.19,1.27,1.56
				C288.4,44.35,289,44.54,289.67,44.54z"/>
			<path class="st0" d="M295.89,35.82v-0.71l1.51-0.08h3.23v0.8H295.89z M297.38,45.11V32.78c0-0.67,0.1-1.23,0.29-1.68
				s0.48-0.78,0.85-1.01c0.37-0.22,0.82-0.34,1.35-0.34c0.24,0,0.49,0.03,0.75,0.08c0.26,0.06,0.5,0.14,0.72,0.25l-0.27,0.71
				c-0.42-0.17-0.82-0.25-1.2-0.25c-0.53,0-0.93,0.2-1.19,0.6c-0.26,0.4-0.39,0.96-0.39,1.69v12.26H297.38z"/>
		</g>
	</g>
	<g id="Artwork_17_00000016048507300032909600000007537699640571743619_">
		<g>
			<defs>
				<rect id="SVGID_1_" x="94.44" y="58.25" width="311.11" height="50.92"/>
			</defs>
			<clipPath id="SVGID_00000069364446679691491290000000243635427612992950_">
				<use xlink:href="#SVGID_1_"  style="overflow:visible;"/>
			</clipPath>
			<g style="clip-path:url(#SVGID_00000069364446679691491290000000243635427612992950_);">
				<defs>
					<rect id="SVGID_00000060720995287475441970000006323093336185714079_" x="94.44" y="58.25" width="311.11" height="50.92"/>
				</defs>
				<clipPath id="SVGID_00000142174360492823440500000011586905344623425420_">
					<use xlink:href="#SVGID_00000060720995287475441970000006323093336185714079_"  style="overflow:visible;"/>
				</clipPath>
				<path style="clip-path:url(#SVGID_00000142174360492823440500000011586905344623425420_);fill:#FFFFFF;" d="M108.19,84.5
					c-1.96,0-3.78-0.32-5.46-0.96c-1.68-0.64-3.14-1.55-4.37-2.74c-1.23-1.18-2.19-2.57-2.88-4.17c-0.69-1.6-1.03-3.35-1.03-5.26
					c0-1.91,0.34-3.66,1.03-5.26c0.69-1.6,1.66-2.99,2.9-4.17c1.24-1.18,2.71-2.1,4.39-2.74c1.68-0.64,3.5-0.96,5.46-0.96
					c2.2,0,4.19,0.38,5.98,1.14c1.79,0.76,3.29,1.88,4.5,3.35l-3.81,3.48c-0.85-0.99-1.81-1.74-2.88-2.25
					c-1.08-0.51-2.24-0.76-3.5-0.76c-1.18,0-2.27,0.2-3.26,0.6c-0.99,0.4-1.85,0.96-2.57,1.69c-0.73,0.73-1.29,1.58-1.69,2.57
					s-0.6,2.09-0.6,3.3c0,1.21,0.2,2.31,0.6,3.3c0.4,0.99,0.96,1.85,1.69,2.57c0.73,0.73,1.58,1.29,2.57,1.69
					c0.99,0.4,2.08,0.6,3.26,0.6c1.26,0,2.42-0.26,3.5-0.78c1.07-0.52,2.04-1.27,2.88-2.27l3.81,3.48c-1.21,1.47-2.71,2.6-4.5,3.37
					C112.42,84.11,110.41,84.5,108.19,84.5"/>
				<path style="clip-path:url(#SVGID_00000142174360492823440500000011586905344623425420_);fill:#FFFFFF;" d="M128.46,79.35h13.82
					v4.71h-19.65V58.68h19.18v4.71h-13.34V79.35z M128.02,68.87h12.22v4.61h-12.22V68.87z"/>
				<polygon style="clip-path:url(#SVGID_00000142174360492823440500000011586905344623425420_);fill:#FFFFFF;" points="
					146.95,84.07 146.95,58.68 152.86,58.68 152.86,79.28 165.51,79.28 165.51,84.07 				"/>
				
					<rect x="168.85" y="58.68" style="clip-path:url(#SVGID_00000142174360492823440500000011586905344623425420_);fill:#FFFFFF;" width="5.91" height="25.38"/>
				<path style="clip-path:url(#SVGID_00000142174360492823440500000011586905344623425420_);fill:#FFFFFF;" d="M177.41,84.07
					l11.28-25.38h5.8l11.39,25.38h-6.16l-9.32-22.41h2.36l-9.32,22.41H177.41z M183.1,78.63l1.49-4.46h13.13l1.52,4.46H183.1z"/>
				<path style="clip-path:url(#SVGID_00000142174360492823440500000011586905344623425420_);fill:#00E1C4;" d="M215.44,84.07
					l11.28-25.38h5.8l11.39,25.38h-6.16l-9.32-22.41h2.36l-9.32,22.41H215.44z M221.14,78.63l1.49-4.46h13.13l1.52,4.46H221.14z"/>
				<polygon style="clip-path:url(#SVGID_00000142174360492823440500000011586905344623425420_);fill:#00E1C4;" points="
					246.55,84.07 246.55,58.68 252.46,58.68 252.46,79.28 265.12,79.28 265.12,84.07 				"/>
				<polygon style="clip-path:url(#SVGID_00000142174360492823440500000011586905344623425420_);fill:#00E1C4;" points="
					268.46,84.07 268.46,58.68 274.37,58.68 274.37,79.28 287.02,79.28 287.02,84.07 				"/>
				
					<rect x="290.36" y="58.68" style="clip-path:url(#SVGID_00000142174360492823440500000011586905344623425420_);fill:#00E1C4;" width="5.91" height="25.38"/>
				<path style="clip-path:url(#SVGID_00000142174360492823440500000011586905344623425420_);fill:#00E1C4;" d="M298.91,84.07
					l11.28-25.38h5.8l11.39,25.38h-6.17l-9.32-22.41h2.36l-9.32,22.41H298.91z M304.61,78.63l1.49-4.46h13.13l1.52,4.46H304.61z"/>
				<polygon style="clip-path:url(#SVGID_00000142174360492823440500000011586905344623425420_);fill:#00E1C4;" points="
					330.03,84.07 330.03,58.68 334.88,58.68 349.86,76.96 347.5,76.96 347.5,58.68 353.3,58.68 353.3,84.07 348.44,84.07 
					333.47,65.79 335.83,65.79 335.83,84.07 				"/>
				<path style="clip-path:url(#SVGID_00000142174360492823440500000011586905344623425420_);fill:#00E1C4;" d="M371.47,84.5
					c-1.96,0-3.78-0.32-5.46-0.96c-1.68-0.64-3.14-1.55-4.37-2.74c-1.23-1.18-2.19-2.57-2.88-4.17c-0.69-1.6-1.03-3.35-1.03-5.26
					c0-1.91,0.34-3.66,1.03-5.26c0.69-1.6,1.66-2.99,2.9-4.17c1.24-1.18,2.71-2.1,4.39-2.74c1.68-0.64,3.5-0.96,5.46-0.96
					c2.2,0,4.19,0.38,5.98,1.14c1.79,0.76,3.29,1.88,4.5,3.35l-3.81,3.48c-0.85-0.99-1.81-1.74-2.88-2.25
					c-1.08-0.51-2.24-0.76-3.5-0.76c-1.18,0-2.27,0.2-3.26,0.6c-0.99,0.4-1.85,0.96-2.57,1.69c-0.72,0.73-1.29,1.58-1.69,2.57
					c-0.4,0.99-0.6,2.09-0.6,3.3c0,1.21,0.2,2.31,0.6,3.3c0.4,0.99,0.96,1.85,1.69,2.57c0.73,0.73,1.58,1.29,2.57,1.69
					c0.99,0.4,2.08,0.6,3.26,0.6c1.26,0,2.42-0.26,3.5-0.78c1.07-0.52,2.04-1.27,2.88-2.27l3.81,3.48c-1.21,1.47-2.71,2.6-4.5,3.37
					C375.7,84.11,373.69,84.5,371.47,84.5"/>
				<path style="clip-path:url(#SVGID_00000142174360492823440500000011586905344623425420_);fill:#00E1C4;" d="M391.74,79.35h13.82
					v4.71H385.9V58.68h19.18v4.71h-13.34V79.35z M391.31,68.87h12.22v4.61h-12.22V68.87z"/>
				<polygon style="clip-path:url(#SVGID_00000142174360492823440500000011586905344623425420_);fill:#FFFFFF;" points="
					97.49,108.93 97.49,95.66 98.42,95.66 98.42,108.12 104.54,108.12 104.54,108.93 				"/>
				<path style="clip-path:url(#SVGID_00000142174360492823440500000011586905344623425420_);fill:#FFFFFF;" d="M111.19,109.17
					c-0.51,0-0.98-0.09-1.4-0.28c-0.42-0.19-0.76-0.48-1.02-0.88c-0.26-0.4-0.38-0.89-0.38-1.48c0-1.09,0.5-1.91,1.51-2.47
					c1.01-0.56,2.58-0.96,4.73-1.2c0-0.5-0.06-0.98-0.17-1.45c-0.11-0.47-0.34-0.86-0.66-1.16c-0.33-0.3-0.82-0.45-1.46-0.45
					c-0.65,0-1.24,0.12-1.77,0.37c-0.54,0.25-0.97,0.49-1.31,0.72l-0.4-0.62c0.23-0.17,0.52-0.36,0.89-0.55
					c0.36-0.19,0.78-0.36,1.24-0.49c0.46-0.13,0.96-0.2,1.48-0.2c0.75,0,1.35,0.17,1.8,0.5c0.45,0.34,0.77,0.79,0.97,1.35
					c0.2,0.56,0.29,1.19,0.29,1.87v6.18h-0.76l-0.08-1.25h-0.06c-0.48,0.39-1.02,0.73-1.6,1.04S111.82,109.17,111.19,109.17
					 M111.35,108.39c0.55,0,1.08-0.13,1.6-0.39c0.52-0.26,1.08-0.65,1.68-1.16v-3.26c-1.33,0.15-2.38,0.35-3.16,0.61
					s-1.34,0.58-1.67,0.96c-0.34,0.38-0.5,0.82-0.5,1.33c0,0.68,0.2,1.17,0.61,1.47C110.32,108.24,110.8,108.39,111.35,108.39"/>
				<path style="clip-path:url(#SVGID_00000142174360492823440500000011586905344623425420_);fill:#FFFFFF;" d="M122.73,108.93
					l-2.86-9.67h0.97l1.73,6.27c0.12,0.44,0.24,0.87,0.35,1.29c0.11,0.42,0.22,0.85,0.31,1.31h0.08c0.11-0.46,0.22-0.89,0.34-1.31
					c0.12-0.42,0.24-0.85,0.34-1.29l1.75-6.27h1.11l1.75,6.27c0.12,0.44,0.24,0.87,0.35,1.29c0.11,0.42,0.23,0.85,0.35,1.31h0.08
					c0.11-0.46,0.22-0.89,0.33-1.31c0.11-0.42,0.23-0.85,0.35-1.29l1.71-6.27h0.91l-2.78,9.67h-1.19l-1.69-6
					c-0.12-0.47-0.24-0.93-0.35-1.38c-0.11-0.45-0.24-0.92-0.37-1.4h-0.08c-0.11,0.48-0.22,0.96-0.34,1.42
					c-0.12,0.46-0.26,0.93-0.4,1.4l-1.65,5.96H122.73z"/>
				<path style="clip-path:url(#SVGID_00000142174360492823440500000011586905344623425420_);fill:#FFFFFF;" d="M146.34,109.17
					c-0.7,0-1.34-0.14-1.92-0.43c-0.58-0.29-1.05-0.71-1.4-1.25c-0.35-0.54-0.52-1.19-0.52-1.92c0-0.62,0.15-1.17,0.44-1.65
					c0.3-0.48,0.67-0.93,1.12-1.33c0.45-0.4,0.93-0.78,1.44-1.14c0.51-0.36,0.99-0.72,1.44-1.08c0.45-0.36,0.82-0.75,1.11-1.15
					c0.29-0.4,0.43-0.85,0.43-1.35c0-0.43-0.11-0.83-0.32-1.19c-0.22-0.36-0.59-0.54-1.13-0.54c-0.58,0-1.03,0.22-1.37,0.64
					c-0.34,0.43-0.5,0.95-0.5,1.55c0,0.68,0.15,1.4,0.44,2.16c0.29,0.75,0.69,1.5,1.18,2.25c0.49,0.75,1.04,1.45,1.64,2.12
					c0.6,0.67,1.22,1.26,1.83,1.77c0.51,0.44,1.01,0.81,1.5,1.1c0.49,0.29,0.94,0.51,1.34,0.65l-0.3,0.79
					c-0.44-0.16-0.93-0.4-1.45-0.71c-0.52-0.31-1.07-0.7-1.63-1.17c-0.66-0.58-1.31-1.23-1.94-1.94c-0.64-0.72-1.22-1.48-1.74-2.29
					c-0.52-0.81-0.94-1.61-1.24-2.41c-0.3-0.8-0.45-1.56-0.45-2.29c0-0.56,0.11-1.07,0.34-1.52c0.23-0.45,0.55-0.8,0.97-1.06
					c0.42-0.25,0.89-0.38,1.43-0.38c0.71,0,1.26,0.23,1.64,0.68c0.38,0.46,0.57,1.03,0.57,1.73c0,0.55-0.14,1.05-0.41,1.5
					c-0.28,0.45-0.64,0.87-1.09,1.26c-0.45,0.39-0.93,0.77-1.43,1.13c-0.5,0.36-0.98,0.74-1.43,1.12c-0.45,0.38-0.82,0.79-1.1,1.23
					c-0.28,0.44-0.42,0.92-0.42,1.44c0,0.59,0.14,1.1,0.41,1.53c0.28,0.43,0.64,0.77,1.1,1.01c0.46,0.24,0.95,0.36,1.49,0.36
					c0.62,0,1.2-0.16,1.73-0.48c0.54-0.32,1.03-0.73,1.47-1.21c0.56-0.63,1.04-1.35,1.44-2.15c0.4-0.8,0.71-1.66,0.96-2.59h0.87
					c-0.28,0.98-0.64,1.92-1.07,2.81c-0.43,0.89-0.95,1.7-1.55,2.41c-0.51,0.58-1.08,1.05-1.71,1.42
					C147.91,108.99,147.17,109.17,146.34,109.17"/>
				<polygon style="clip-path:url(#SVGID_00000142174360492823440500000011586905344623425420_);fill:#FFFFFF;" points="
					166.75,108.93 166.75,96.46 162.52,96.46 162.52,95.66 171.91,95.66 171.91,96.46 167.67,96.46 167.67,108.93 				"/>
				<path style="clip-path:url(#SVGID_00000142174360492823440500000011586905344623425420_);fill:#FFFFFF;" d="M177.16,109.17
					c-0.51,0-0.98-0.09-1.4-0.28c-0.42-0.19-0.76-0.48-1.02-0.88c-0.26-0.4-0.38-0.89-0.38-1.48c0-1.09,0.5-1.91,1.51-2.47
					c1.01-0.56,2.58-0.96,4.73-1.2c0-0.5-0.06-0.98-0.17-1.45c-0.11-0.47-0.34-0.86-0.66-1.16s-0.82-0.45-1.46-0.45
					c-0.64,0-1.24,0.12-1.77,0.37c-0.54,0.25-0.97,0.49-1.31,0.72l-0.4-0.62c0.23-0.17,0.52-0.36,0.89-0.55
					c0.36-0.19,0.78-0.36,1.24-0.49c0.46-0.13,0.96-0.2,1.48-0.2c0.75,0,1.35,0.17,1.8,0.5c0.45,0.34,0.77,0.79,0.97,1.35
					c0.19,0.56,0.29,1.19,0.29,1.87v6.18h-0.77l-0.08-1.25h-0.06c-0.48,0.39-1.02,0.73-1.6,1.04
					C178.4,109.02,177.79,109.17,177.16,109.17 M177.32,108.39c0.55,0,1.08-0.13,1.6-0.39c0.52-0.26,1.08-0.65,1.68-1.16v-3.26
					c-1.33,0.15-2.38,0.35-3.16,0.61c-0.78,0.26-1.34,0.58-1.67,0.96c-0.34,0.38-0.5,0.82-0.5,1.33c0,0.68,0.2,1.17,0.61,1.47
					C176.29,108.24,176.77,108.39,177.32,108.39"/>
				<path style="clip-path:url(#SVGID_00000142174360492823440500000011586905344623425420_);fill:#FFFFFF;" d="M185.64,108.93
					l3.28-5.06l-3.02-4.61h0.99l1.57,2.46c0.16,0.26,0.33,0.52,0.5,0.79c0.17,0.27,0.35,0.54,0.52,0.81h0.08
					c0.17-0.27,0.34-0.54,0.5-0.81c0.16-0.27,0.32-0.53,0.48-0.79l1.51-2.46H193l-3,4.69l3.28,4.98h-0.99l-1.71-2.64
					c-0.17-0.31-0.36-0.61-0.55-0.91s-0.39-0.58-0.59-0.87h-0.08c-0.19,0.28-0.37,0.57-0.55,0.87c-0.18,0.3-0.37,0.6-0.55,0.91
					l-1.65,2.64H185.64z"/>
				<path style="clip-path:url(#SVGID_00000142174360492823440500000011586905344623425420_);fill:#FFFFFF;" d="M202.71,100.03
					v-0.68l1.45-0.08h3.1v0.77H202.71z M204.14,108.93V97.11c0-0.64,0.09-1.18,0.28-1.61c0.19-0.43,0.46-0.75,0.81-0.97
					c0.36-0.22,0.79-0.32,1.3-0.32c0.23,0,0.47,0.03,0.71,0.08c0.25,0.05,0.48,0.13,0.7,0.24l-0.26,0.68
					c-0.4-0.16-0.79-0.24-1.15-0.24c-0.51,0-0.89,0.19-1.14,0.57c-0.25,0.38-0.37,0.92-0.37,1.62v11.76H204.14z"/>
				<path style="clip-path:url(#SVGID_00000142174360492823440500000011586905344623425420_);fill:#FFFFFF;" d="M214.89,109.17
					c-0.76,0-1.48-0.2-2.15-0.59c-0.66-0.4-1.2-0.97-1.59-1.73c-0.4-0.76-0.59-1.67-0.59-2.73c0-1.07,0.2-1.99,0.59-2.76
					c0.4-0.77,0.93-1.35,1.59-1.74c0.66-0.4,1.38-0.59,2.15-0.59c0.78,0,1.5,0.2,2.16,0.59c0.66,0.4,1.19,0.98,1.59,1.74
					c0.4,0.77,0.6,1.69,0.6,2.76c0,1.06-0.2,1.97-0.6,2.73c-0.4,0.76-0.93,1.34-1.59,1.73
					C216.39,108.97,215.67,109.17,214.89,109.17 M214.89,108.39c0.66,0,1.25-0.18,1.76-0.53c0.52-0.36,0.92-0.86,1.22-1.5
					c0.29-0.64,0.44-1.39,0.44-2.24c0-0.85-0.15-1.59-0.44-2.25c-0.29-0.65-0.7-1.16-1.22-1.52c-0.52-0.36-1.11-0.54-1.76-0.54
					c-0.64,0-1.22,0.18-1.73,0.54c-0.51,0.36-0.92,0.87-1.22,1.52c-0.3,0.65-0.45,1.4-0.45,2.25c0,0.85,0.15,1.59,0.45,2.24
					c0.3,0.64,0.71,1.15,1.22,1.5C213.67,108.21,214.25,108.39,214.89,108.39"/>
				<path style="clip-path:url(#SVGID_00000142174360492823440500000011586905344623425420_);fill:#FFFFFF;" d="M224.42,108.93
					v-9.67h0.77l0.08,1.79h0.06c0.31-0.59,0.7-1.08,1.16-1.46c0.46-0.38,0.99-0.57,1.58-0.57c0.17,0,0.34,0.01,0.49,0.04
					c0.15,0.03,0.31,0.08,0.47,0.16l-0.24,0.77c-0.13-0.04-0.26-0.07-0.37-0.09c-0.11-0.02-0.27-0.03-0.47-0.03
					c-0.43,0-0.88,0.18-1.36,0.55c-0.48,0.37-0.9,1.01-1.28,1.92v6.59H224.42z"/>
				
					<rect x="239.49" y="95.66" style="clip-path:url(#SVGID_00000142174360492823440500000011586905344623425420_);fill:#FFFFFF;" width="0.93" height="13.28"/>
				<path style="clip-path:url(#SVGID_00000142174360492823440500000011586905344623425420_);fill:#FFFFFF;" d="M246.5,108.93v-9.67
					h0.77l0.08,1.49h0.06c0.5-0.5,1.01-0.91,1.54-1.24c0.53-0.33,1.12-0.49,1.78-0.49c1.01,0,1.75,0.31,2.22,0.92
					c0.47,0.61,0.71,1.54,0.71,2.79v6.2h-0.89v-6.08c0-1.03-0.17-1.8-0.51-2.29c-0.34-0.49-0.91-0.73-1.7-0.73
					c-0.58,0-1.1,0.15-1.56,0.45c-0.46,0.3-1,0.76-1.6,1.36v7.29H246.5z"/>
				<path style="clip-path:url(#SVGID_00000142174360492823440500000011586905344623425420_);fill:#FFFFFF;" d="M262.13,109.09
					c-0.94,0-1.58-0.27-1.91-0.81c-0.34-0.54-0.5-1.24-0.5-2.1v-6.16h-1.51v-0.68l1.53-0.08l0.12-3.2h0.77v3.2h2.8v0.77h-2.8v6.22
					c0,0.62,0.11,1.12,0.32,1.5c0.22,0.38,0.65,0.57,1.31,0.57c0.19,0,0.38-0.02,0.57-0.07c0.2-0.05,0.41-0.12,0.63-0.23l0.28,0.62
					c-0.26,0.13-0.52,0.24-0.81,0.32C262.65,109.05,262.39,109.09,262.13,109.09"/>
				<path style="clip-path:url(#SVGID_00000142174360492823440500000011586905344623425420_);fill:#FFFFFF;" d="M271.5,109.17
					c-0.83,0-1.58-0.2-2.26-0.6c-0.67-0.4-1.21-0.98-1.61-1.74c-0.4-0.76-0.6-1.66-0.6-2.71c0-1.06,0.2-1.97,0.6-2.73
					c0.4-0.76,0.92-1.34,1.56-1.75c0.64-0.41,1.32-0.61,2.05-0.61c0.76,0,1.43,0.17,1.98,0.52c0.56,0.35,0.98,0.86,1.28,1.52
					c0.29,0.67,0.44,1.47,0.44,2.43c0,0.11,0,0.22-0.01,0.35c-0.01,0.13-0.02,0.26-0.05,0.39h-7.31v-0.77h6.53
					c0-1.24-0.26-2.16-0.77-2.77c-0.51-0.61-1.2-0.92-2.07-0.92c-0.54,0-1.06,0.15-1.57,0.46c-0.51,0.31-0.93,0.78-1.26,1.42
					c-0.33,0.64-0.49,1.44-0.49,2.41c0,0.89,0.16,1.66,0.48,2.31c0.32,0.65,0.76,1.15,1.31,1.49c0.55,0.34,1.17,0.51,1.85,0.51
					c0.52,0,1-0.07,1.44-0.21c0.44-0.14,0.82-0.33,1.16-0.57l0.36,0.62c-0.38,0.26-0.8,0.48-1.27,0.66
					C272.8,109.08,272.21,109.17,271.5,109.17"/>
				<path style="clip-path:url(#SVGID_00000142174360492823440500000011586905344623425420_);fill:#FFFFFF;" d="M279.84,108.93
					v-9.67h0.77l0.08,1.79h0.06c0.31-0.59,0.69-1.08,1.16-1.46c0.46-0.38,0.99-0.57,1.58-0.57c0.17,0,0.34,0.01,0.49,0.04
					c0.15,0.03,0.31,0.08,0.47,0.16l-0.24,0.77c-0.13-0.04-0.26-0.07-0.37-0.09c-0.11-0.02-0.27-0.03-0.47-0.03
					c-0.43,0-0.88,0.18-1.36,0.55c-0.48,0.37-0.9,1.01-1.28,1.92v6.59H279.84z"/>
				<path style="clip-path:url(#SVGID_00000142174360492823440500000011586905344623425420_);fill:#FFFFFF;" d="M288.5,108.93v-9.67
					h0.77l0.08,1.49h0.06c0.5-0.5,1.01-0.91,1.54-1.24c0.53-0.33,1.12-0.49,1.78-0.49c1.01,0,1.75,0.31,2.22,0.92
					c0.47,0.61,0.71,1.54,0.71,2.79v6.2h-0.89v-6.08c0-1.03-0.17-1.8-0.51-2.29c-0.34-0.49-0.91-0.73-1.7-0.73
					c-0.58,0-1.1,0.15-1.56,0.45c-0.46,0.3-1,0.76-1.6,1.36v7.29H288.5z"/>
				<path style="clip-path:url(#SVGID_00000142174360492823440500000011586905344623425420_);fill:#FFFFFF;" d="M303.61,109.17
					c-0.51,0-0.98-0.09-1.4-0.28c-0.42-0.19-0.76-0.48-1.02-0.88c-0.26-0.4-0.38-0.89-0.38-1.48c0-1.09,0.5-1.91,1.51-2.47
					c1.01-0.56,2.58-0.96,4.73-1.2c0-0.5-0.06-0.98-0.17-1.45c-0.11-0.47-0.34-0.86-0.66-1.16c-0.33-0.3-0.82-0.45-1.46-0.45
					s-1.24,0.12-1.77,0.37c-0.54,0.25-0.97,0.49-1.31,0.72l-0.4-0.62c0.23-0.17,0.52-0.36,0.89-0.55c0.36-0.19,0.78-0.36,1.24-0.49
					c0.46-0.13,0.96-0.2,1.48-0.2c0.75,0,1.35,0.17,1.8,0.5c0.45,0.34,0.77,0.79,0.97,1.35c0.2,0.56,0.29,1.19,0.29,1.87v6.18h-0.77
					l-0.08-1.25h-0.06c-0.48,0.39-1.02,0.73-1.6,1.04C304.85,109.02,304.24,109.17,303.61,109.17 M303.77,108.39
					c0.55,0,1.08-0.13,1.6-0.39c0.52-0.26,1.08-0.65,1.68-1.16v-3.26c-1.33,0.15-2.38,0.35-3.16,0.61
					c-0.78,0.26-1.34,0.58-1.67,0.96c-0.34,0.38-0.5,0.82-0.5,1.33c0,0.68,0.2,1.17,0.61,1.47
					C302.74,108.24,303.22,108.39,303.77,108.39"/>
				<path style="clip-path:url(#SVGID_00000142174360492823440500000011586905344623425420_);fill:#FFFFFF;" d="M316.08,109.09
					c-0.94,0-1.58-0.27-1.91-0.81c-0.34-0.54-0.5-1.24-0.5-2.1v-6.16h-1.51v-0.68l1.53-0.08l0.12-3.2h0.77v3.2h2.8v0.77h-2.8v6.22
					c0,0.62,0.11,1.12,0.32,1.5c0.22,0.38,0.65,0.57,1.31,0.57c0.19,0,0.38-0.02,0.57-0.07c0.19-0.05,0.41-0.12,0.63-0.23l0.28,0.62
					c-0.26,0.13-0.52,0.24-0.81,0.32C316.6,109.05,316.33,109.09,316.08,109.09"/>
				<path style="clip-path:url(#SVGID_00000142174360492823440500000011586905344623425420_);fill:#FFFFFF;" d="M322.43,96.92
					c-0.22,0-0.4-0.08-0.54-0.23c-0.15-0.15-0.22-0.35-0.22-0.59s0.07-0.43,0.22-0.57c0.15-0.14,0.33-0.21,0.54-0.21
					c0.23,0,0.41,0.07,0.55,0.21c0.14,0.14,0.21,0.33,0.21,0.57s-0.07,0.44-0.21,0.59C322.84,96.85,322.65,96.92,322.43,96.92
					 M322,99.26h0.89v9.67H322V99.26z"/>
				<path style="clip-path:url(#SVGID_00000142174360492823440500000011586905344623425420_);fill:#FFFFFF;" d="M332.42,109.17
					c-0.77,0-1.48-0.2-2.15-0.59c-0.66-0.4-1.2-0.97-1.59-1.73c-0.4-0.76-0.59-1.67-0.59-2.73c0-1.07,0.2-1.99,0.59-2.76
					c0.4-0.77,0.93-1.35,1.59-1.74c0.66-0.4,1.38-0.59,2.15-0.59c0.78,0,1.5,0.2,2.16,0.59c0.66,0.4,1.19,0.98,1.59,1.74
					c0.4,0.77,0.6,1.69,0.6,2.76c0,1.06-0.2,1.97-0.6,2.73c-0.4,0.76-0.93,1.34-1.59,1.73
					C333.91,108.97,333.19,109.17,332.42,109.17 M332.42,108.39c0.66,0,1.25-0.18,1.76-0.53c0.52-0.36,0.92-0.86,1.22-1.5
					c0.29-0.64,0.44-1.39,0.44-2.24c0-0.85-0.15-1.59-0.44-2.25c-0.3-0.65-0.7-1.16-1.22-1.52c-0.52-0.36-1.11-0.54-1.76-0.54
					c-0.64,0-1.22,0.18-1.73,0.54c-0.51,0.36-0.92,0.87-1.22,1.52c-0.3,0.65-0.45,1.4-0.45,2.25c0,0.85,0.15,1.59,0.45,2.24
					c0.3,0.64,0.71,1.15,1.22,1.5C331.19,108.21,331.77,108.39,332.42,108.39"/>
				<path style="clip-path:url(#SVGID_00000142174360492823440500000011586905344623425420_);fill:#FFFFFF;" d="M341.94,108.93
					v-9.67h0.77l0.08,1.49h0.06c0.5-0.5,1.01-0.91,1.54-1.24c0.53-0.33,1.12-0.49,1.78-0.49c1.01,0,1.75,0.31,2.22,0.92
					c0.47,0.61,0.71,1.54,0.71,2.79v6.2h-0.89v-6.08c0-1.03-0.17-1.8-0.51-2.29c-0.34-0.49-0.91-0.73-1.7-0.73
					c-0.58,0-1.1,0.15-1.56,0.45c-0.46,0.3-1,0.76-1.6,1.36v7.29H341.94z"/>
				<path style="clip-path:url(#SVGID_00000142174360492823440500000011586905344623425420_);fill:#FFFFFF;" d="M357.05,109.17
					c-0.51,0-0.98-0.09-1.4-0.28c-0.42-0.19-0.76-0.48-1.02-0.88c-0.26-0.4-0.38-0.89-0.38-1.48c0-1.09,0.5-1.91,1.51-2.47
					c1.01-0.56,2.58-0.96,4.73-1.2c0-0.5-0.06-0.98-0.17-1.45c-0.11-0.47-0.34-0.86-0.66-1.16c-0.33-0.3-0.82-0.45-1.46-0.45
					c-0.64,0-1.24,0.12-1.77,0.37c-0.54,0.25-0.97,0.49-1.31,0.72l-0.4-0.62c0.23-0.17,0.52-0.36,0.89-0.55
					c0.36-0.19,0.78-0.36,1.24-0.49c0.46-0.13,0.96-0.2,1.48-0.2c0.75,0,1.35,0.17,1.8,0.5c0.45,0.34,0.77,0.79,0.97,1.35
					c0.2,0.56,0.29,1.19,0.29,1.87v6.18h-0.77l-0.08-1.25h-0.06c-0.48,0.39-1.02,0.73-1.6,1.04
					C358.29,109.02,357.68,109.17,357.05,109.17 M357.21,108.39c0.55,0,1.08-0.13,1.6-0.39c0.52-0.26,1.08-0.65,1.68-1.16v-3.26
					c-1.33,0.15-2.38,0.35-3.16,0.61c-0.78,0.26-1.34,0.58-1.67,0.96c-0.34,0.38-0.5,0.82-0.5,1.33c0,0.68,0.2,1.17,0.61,1.47
					C356.18,108.24,356.66,108.39,357.21,108.39"/>
				<path style="clip-path:url(#SVGID_00000142174360492823440500000011586905344623425420_);fill:#FFFFFF;" d="M368.29,109.09
					c-0.27,0-0.49-0.05-0.66-0.16c-0.17-0.11-0.31-0.28-0.39-0.5c-0.09-0.23-0.13-0.52-0.13-0.87V94.45h0.89v13.24
					c0,0.23,0.04,0.39,0.13,0.48c0.09,0.09,0.2,0.14,0.33,0.14c0.04,0,0.08,0,0.13-0.01c0.05-0.01,0.11-0.02,0.19-0.03l0.16,0.71
					c-0.09,0.04-0.19,0.07-0.29,0.09C368.55,109.08,368.43,109.09,368.29,109.09"/>
				<polygon style="clip-path:url(#SVGID_00000142174360492823440500000011586905344623425420_);fill:#FFFFFF;" points="
					380.56,108.93 380.56,95.66 381.49,95.66 381.49,101.48 388.6,101.48 388.6,95.66 389.53,95.66 389.53,108.93 388.6,108.93 
					388.6,102.28 381.49,102.28 381.49,108.93 				"/>
				<path style="clip-path:url(#SVGID_00000142174360492823440500000011586905344623425420_);fill:#FFFFFF;" d="M395.71,108.93
					V95.66h3.81c0.87,0,1.63,0.11,2.29,0.34c0.65,0.23,1.16,0.6,1.52,1.12c0.36,0.52,0.54,1.2,0.54,2.05c0,0.81-0.18,1.48-0.54,2.02
					c-0.36,0.54-0.87,0.95-1.52,1.23c-0.65,0.27-1.41,0.41-2.29,0.41h-2.88v6.1H395.71z M396.64,102.06h2.64
					c1.18,0,2.09-0.24,2.71-0.72c0.62-0.48,0.94-1.2,0.94-2.19c0-0.99-0.31-1.7-0.94-2.1c-0.62-0.41-1.53-0.61-2.71-0.61h-2.64
					V102.06z M403.06,108.93l-3.77-6.37l0.89-0.26l3.95,6.63H403.06z"/>
			</g>
		</g>
	</g>
</g>
</svg>
