<svg xmlns="http://www.w3.org/2000/svg" viewBox="0 0 29.98 30"><defs><style>.cls-1{fill:#fff;}</style></defs><g id="Layer_2" data-name="Layer 2"><g id="Layer_1-2" data-name="Layer 1"><path id="Path_318" data-name="Path 318" class="cls-1" d="M28.64,0H19a5.38,5.38,0,0,0-4,1.83A5.34,5.34,0,0,0,11,0H1.34A1.34,1.34,0,0,0,0,1.34V24.61A1.34,1.34,0,0,0,1.34,26H11a2.69,2.69,0,0,1,2.69,2.69v0a1.35,1.35,0,0,0,2.69,0v0A2.69,2.69,0,0,1,19,26h9.62A1.34,1.34,0,0,0,30,24.61V1.34A1.34,1.34,0,0,0,28.64,0Zm-15,24A5.29,5.29,0,0,0,11,23.27H2.68V2.68H11a2.7,2.7,0,0,1,2.69,2.69Zm13.65-.72H19a5.32,5.32,0,0,0-2.69.72V5.37A2.71,2.71,0,0,1,19,2.68H27.3Z"/></g></g></svg>