<svg xmlns="http://www.w3.org/2000/svg" viewBox="0 0 185.29 185.4"><defs><style>.cls-1{fill:#fff;}</style></defs><g id="Layer_2" data-name="Layer 2"><g id="Layer_1-2" data-name="Layer 1"><path id="Path_317" data-name="Path 317" class="cls-1" d="M92.67,185.4A9.39,9.39,0,0,1,83.28,176h0V142.47h-39A44.3,44.3,0,0,1,0,98.22v-54A44.3,44.3,0,0,1,44.24,0H141a44.29,44.29,0,0,1,44.25,44.23v54a44.29,44.29,0,0,1-44.24,44.24h-1.54L99.32,182.64A9.38,9.38,0,0,1,92.67,185.4ZM44.24,18.78A25.5,25.5,0,0,0,18.78,44.25v54A25.5,25.5,0,0,0,44.24,123.7H92.67a9.38,9.38,0,0,1,9.39,9.38h0v20.27L129,126.45a9.39,9.39,0,0,1,6.64-2.75H141a25.5,25.5,0,0,0,25.47-25.47v-54A25.49,25.49,0,0,0,141,18.79Z"/><circle id="Ellipse_298" data-name="Ellipse 298" class="cls-1" cx="57.14" cy="71.23" r="10.35"/><circle id="Ellipse_299" data-name="Ellipse 299" class="cls-1" cx="92.97" cy="71.23" r="10.35"/><circle id="Ellipse_300" data-name="Ellipse 300" class="cls-1" cx="128.8" cy="71.23" r="10.35"/></g></g></svg>