<svg xmlns="http://www.w3.org/2000/svg" viewBox="0 0 115.32 210.04"><g id="Layer_2" data-name="Layer 2"><g id="Layer_1-2" data-name="Layer 1"><g id="Group_482" data-name="Group 482"><path id="Path_335" data-name="Path 335" d="M115.32,57.7A57.66,57.66,0,1,0,24.8,105,57.62,57.62,0,0,0,0,152.38v47.34a10.32,10.32,0,0,0,20.64,0V152.38a37,37,0,0,1,74,0v47.34a10.32,10.32,0,1,0,20.64,0V152.38A57.61,57.61,0,0,0,90.52,105,57.6,57.6,0,0,0,115.32,57.7Zm-57.66,37a37,37,0,1,1,37-37h0A37.05,37.05,0,0,1,57.66,94.71Z"/></g></g></g></svg>