<svg xmlns="http://www.w3.org/2000/svg" viewBox="0 0 189.75 148.36"><defs><style>.cls-1{fill:#fff;}</style></defs><g id="Layer_2" data-name="Layer 2"><g id="Layer_1-2" data-name="Layer 1"><path class="cls-1" d="M181.21,45.2a26,26,0,1,0-35,0,25.91,25.91,0,0,0-8.54,19.24v16L117.14,96.9a11.9,11.9,0,0,0-4.2,6.81l-7.21,34a6.72,6.72,0,0,0,1.45,5.73,4.4,4.4,0,0,0,.35.39,6.48,6.48,0,0,0,1.25,1,7.26,7.26,0,0,0,1.12.56c.1.05.21.08.31.12l7.57,2.57.48.09a12.23,12.23,0,0,0,2.16.2,12,12,0,0,0,9.89-5.17L145,122h24.69a6.75,6.75,0,1,0,0-13.5H144.25a12,12,0,0,0-9.87,5.17l-14,20.13,5.66-26.7,22.48-18a5.89,5.89,0,0,0,1-1l.12-.14a6.6,6.6,0,0,0,1.57-4.32V64.44a12.51,12.51,0,0,1,25,0V83.67a6.76,6.76,0,0,0,13.51,0V64.44A25.91,25.91,0,0,0,181.21,45.2ZM163.9,38.46h-.19a11.75,11.75,0,1,1,.19,0Z"/><path class="cls-1" d="M0,64.44V83.67a6.76,6.76,0,0,0,13.51,0V64.44a12.51,12.51,0,0,1,25,0V83.66A6.6,6.6,0,0,0,40.09,88l.12.14a5.89,5.89,0,0,0,1,1l22.48,18,5.66,26.7-14-20.13a12,12,0,0,0-9.87-5.17H20A6.75,6.75,0,0,0,20,122H44.72l14.72,21.19a12,12,0,0,0,9.89,5.17,12.23,12.23,0,0,0,2.16-.2l.48-.09,7.57-2.57c.1,0,.21-.07.31-.12a7.26,7.26,0,0,0,1.12-.56,6.48,6.48,0,0,0,1.25-1,4.4,4.4,0,0,0,.35-.39A6.72,6.72,0,0,0,84,137.68l-7.21-34a11.9,11.9,0,0,0-4.2-6.81L52,80.43v-16A25.91,25.91,0,0,0,43.49,45.2,26,26,0,1,0,0,26,25.91,25.91,0,0,0,8.54,45.2,25.91,25.91,0,0,0,0,64.44ZM13.61,25.88A12.41,12.41,0,1,1,26,38.45h-.19A12.53,12.53,0,0,1,13.61,25.88Z"/><path class="cls-1" d="M122.36,81a6.78,6.78,0,0,1-6.77,6.77h-14v51.47a6.77,6.77,0,0,1-13.54,0V87.75H74.15a6.77,6.77,0,0,1,0-13.54h41.44A6.78,6.78,0,0,1,122.36,81Z"/></g></g></svg>