<svg xmlns="http://www.w3.org/2000/svg" viewBox="0 0 539.17 115.31"><defs><style>.cls-1{fill:#2c2f31;}</style></defs><g id="Layer_2" data-name="Layer 2"><g id="Layer_1-2" data-name="Layer 1"><g id="Layer_2-2" data-name="Layer 2"><g id="Layer_1-2-2" data-name="Layer 1-2"><path class="cls-1" d="M199,97.78h-.19a25.67,25.67,0,0,1-25.53-25.21V46.09a25.68,25.68,0,0,1,25.59-25.4h.19A25.65,25.65,0,0,1,224.62,46v.58a6,6,0,0,1-12,0v-.52A13.66,13.66,0,0,0,199,32.65h-.1a13.69,13.69,0,0,0-13.69,13.5V72.48a13.67,13.67,0,0,0,13.63,13.35H199a13.67,13.67,0,0,0,13.67-13.49v-.59a6,6,0,1,1,12,0v.65A25.64,25.64,0,0,1,199,97.78Z"/><path class="cls-1" d="M257.17,99.19h0a25.67,25.67,0,0,1-25.65-25.7,25.74,25.74,0,0,1,25.6-25.65,25.68,25.68,0,0,1,25.75,25.6v.1A25.7,25.7,0,0,1,257.17,99.19Zm0-39.4h0a13.72,13.72,0,0,0-9.68,23.42,13.61,13.61,0,0,0,9.7,4h0a13.74,13.74,0,0,0,13.72-13.71v-.07a13.73,13.73,0,0,0-13.72-13.67Zm19.7,13.75h0Z"/><path class="cls-1" d="M472.6,99.19h0a25.68,25.68,0,1,1,25.7-25.67v0A25.7,25.7,0,0,1,472.6,99.19Zm0-39.4a13.72,13.72,0,0,0-9.71,23.42,13.61,13.61,0,0,0,9.7,4h0a13.74,13.74,0,0,0,13.73-13.71h0A13.75,13.75,0,0,0,472.6,59.79Zm19.71,13.75h0Z"/><path class="cls-1" d="M296.79,99.47a6,6,0,0,1-6-6V73.58a26.05,26.05,0,0,1,26-26h.11a6,6,0,0,1,0,12h-.08a14.05,14.05,0,0,0-14,14v20A6,6,0,0,1,296.79,99.47Z"/><path class="cls-1" d="M330.65,99.47a6,6,0,0,1-6-6V73.58a26,26,0,0,1,26-26h.06a6,6,0,0,1,0,12h0a14,14,0,0,0-14,14v20A6,6,0,0,1,330.65,99.47Z"/><path class="cls-1" d="M513.16,99.47a6,6,0,0,1-6-6V73.36a25.94,25.94,0,0,1,25.9-25.78h.15a6,6,0,0,1,0,12h-.12a14,14,0,0,0-13.94,13.85V93.5A6,6,0,0,1,513.16,99.47Z"/><path class="cls-1" d="M370.54,99.45a6,6,0,0,1-6-6V53.84a6,6,0,1,1,11.95,0V93.48A6,6,0,0,1,370.54,99.45Z"/><path class="cls-1" d="M370.54,31.87a6,6,0,0,1-4.22-1.76A5.64,5.64,0,0,1,365,28.18a5.47,5.47,0,0,1-.34-1.11,5.81,5.81,0,0,1,0-2.35A5.56,5.56,0,0,1,365,23.6a5,5,0,0,1,.55-1,5.52,5.52,0,0,1,.74-.92,6.17,6.17,0,0,1,8.45,0,5.47,5.47,0,0,1,.73.92,5,5,0,0,1,.56,1,5.56,5.56,0,0,1,.34,1.12,5.81,5.81,0,0,1,0,2.35,5.47,5.47,0,0,1-.34,1.11,5.83,5.83,0,0,1-.56,1,5.67,5.67,0,0,1-.73.89A6,6,0,0,1,370.54,31.87Z"/><path class="cls-1" d="M7.05,115.31a7.05,7.05,0,0,1-7-7V7.09a7.06,7.06,0,0,1,10.86-6l48.4,31a7.07,7.07,0,0,1,3.24,6V54.46a7,7,0,1,1-14.1,0V42L14.08,20V99.63l30.68-6.27A7,7,0,1,1,48.15,107a5.05,5.05,0,0,1-.56.12l-39.12,8A6.82,6.82,0,0,1,7.05,115.31Z"/><path class="cls-1" d="M127.8,115.31a7.53,7.53,0,0,1-1.42-.16l-39.14-8a7,7,0,0,1,2.83-13.8l30.68,6.25V20L86.43,41.87V54.36a7.06,7.06,0,0,1-14.09,0V38a7.07,7.07,0,0,1,3.25-6L124,1.15a7.05,7.05,0,0,1,9.74,2.14,7,7,0,0,1,1.12,3.84V108.26a7.05,7.05,0,0,1-7,7Z"/></g></g><path class="cls-1" d="M413,58.34a14.09,14.09,0,1,0,0,28.17h0a14.1,14.1,0,0,0,14.07-14.1V25.65a6,6,0,0,1,11.95,0V72.4a26.06,26.06,0,0,1-26,26.06h0a26,26,0,0,1,0-52.07H413a6,6,0,1,1,0,12Z"/><path class="cls-1" d="M533.58,27.65a2.62,2.62,0,0,0,.91-2.08,2.57,2.57,0,0,0-.91-2,3.6,3.6,0,0,0-2.41-.78h-2.86V32h1.56V28.43h1L533.1,32H535l-2.61-3.72A3.16,3.16,0,0,0,533.58,27.65Zm-3.71-3.55h1.23a2,2,0,0,1,1.3.39,1.35,1.35,0,0,1,.48,1.13,1.38,1.38,0,0,1-.48,1.14,2,2,0,0,1-1.3.4h-1.23Z"/><path class="cls-1" d="M538.57,24.43a7.65,7.65,0,0,0-1.67-2.52,7.51,7.51,0,0,0-2.51-1.65,8.74,8.74,0,0,0-6.26,0,7.45,7.45,0,0,0-2.52,1.65,7.65,7.65,0,0,0-1.67,2.52,8.54,8.54,0,0,0,0,6.34,7.86,7.86,0,0,0,1.67,2.52,7.45,7.45,0,0,0,2.52,1.65,8.74,8.74,0,0,0,6.26,0,7.51,7.51,0,0,0,2.51-1.65,7.86,7.86,0,0,0,1.67-2.52,8.67,8.67,0,0,0,0-6.34Zm-1.11,5.89A6.6,6.6,0,0,1,536,32.48a6.29,6.29,0,0,1-2.13,1.43,7.17,7.17,0,0,1-5.31,0,6.29,6.29,0,0,1-2.13-1.43,6.6,6.6,0,0,1-1.42-2.16,7.51,7.51,0,0,1,0-5.44,6.49,6.49,0,0,1,3.55-3.6,7.3,7.3,0,0,1,5.31,0,6.49,6.49,0,0,1,3.55,3.6,7.65,7.65,0,0,1,0,5.44Z"/></g></g></svg>