<svg xmlns="http://www.w3.org/2000/svg" viewBox="0 0 60.25 54.26"><defs><style>.cls-1{fill:#fff;}</style></defs><g id="Layer_2" data-name="Layer 2"><g id="Layer_1-2" data-name="Layer 1"><g id="Disputes_88" data-name="Disputes 88"><g id="Group_885" data-name="Group 885"><path id="Path_507" data-name="Path 507" class="cls-1" d="M50.68,18.4H26.78A9.57,9.57,0,0,0,17.21,28V38.72a9.58,9.58,0,0,0,9.57,9.56H37.54v3.59a2.39,2.39,0,0,0,4.08,1.69l5.28-5.28h3.79a9.57,9.57,0,0,0,9.56-9.56V28A9.57,9.57,0,0,0,50.68,18.4Zm0,25.1H45.9a2.44,2.44,0,0,0-1.69.7l-1.89,1.9v-.21a2.39,2.39,0,0,0-2.4-2.39H26.77A4.79,4.79,0,0,1,22,38.72V28a4.8,4.8,0,0,1,4.78-4.79H50.68A4.79,4.79,0,0,1,55.46,28V38.72A4.79,4.79,0,0,1,50.68,43.5Z"/><path class="cls-1" d="M43,9.56V12.2a2.39,2.39,0,0,1-4.78,0V9.56a4.8,4.8,0,0,0-4.79-4.78H9.57A4.79,4.79,0,0,0,4.79,9.56V20.32A4.79,4.79,0,0,0,9.55,25.1H11.3a2.39,2.39,0,1,1,0,4.78H9.55A9.58,9.58,0,0,1,0,20.32V9.56A9.58,9.58,0,0,1,9.57,0h23.9A9.58,9.58,0,0,1,43,9.56Z"/><circle class="cls-1" cx="13.69" cy="14.94" r="2.34"/><circle class="cls-1" cx="21.52" cy="14.94" r="2.34"/><circle class="cls-1" cx="29.35" cy="14.94" r="2.34"/></g></g><circle class="cls-1" cx="30.9" cy="33.12" r="2.34"/><circle class="cls-1" cx="38.73" cy="33.12" r="2.34"/><circle class="cls-1" cx="46.56" cy="33.12" r="2.34"/></g></g></svg>