<svg xmlns="http://www.w3.org/2000/svg" viewBox="0 0 257.72 209.99"><defs><style>.cls-1{fill:#fff;}</style></defs><g id="Layer_2" data-name="Layer 2"><g id="Layer_1-2" data-name="Layer 1"><g id="Group_483" data-name="Group 483"><path id="Path_338" data-name="Path 338" class="cls-1" d="M247.2,68.11h-8.54a60,60,0,0,0-10-24.15l6.06-6.05A10.52,10.52,0,0,0,219.87,23l-.06.06-6.05,6.06a60,60,0,0,0-24.15-10V10.52a10.52,10.52,0,0,0-21,0v8.54a60,60,0,0,0-24.15,10L138.36,23a10.52,10.52,0,0,0-14.88,14.88L129.54,44a60.17,60.17,0,0,0-10,24.15H111a10.52,10.52,0,0,0,0,21h8.54a60.17,60.17,0,0,0,10,24.15l-6,6.06a10.52,10.52,0,0,0,14.87,14.87l6.06-6a60.11,60.11,0,0,0,24.15,10v8.54a10.52,10.52,0,1,0,21,0V138.2a60.13,60.13,0,0,0,24.14-10l6.06,6a10.52,10.52,0,0,0,14.88-14.87l-6.06-6.06a60,60,0,0,0,10-24.15h8.54a10.52,10.52,0,1,0,0-21Zm-68.11,50a39.47,39.47,0,1,1,39.46-39.47h0a39.51,39.51,0,0,1-39.46,39.47Z"/><path id="Path_339" data-name="Path 339" class="cls-1" d="M106.41,141H99.14a41.7,41.7,0,0,0-4.47-10.81l5.14-5.12A10.53,10.53,0,0,0,84.93,110.2l-5.13,5.14A42,42,0,0,0,69,110.87V103.6a10.53,10.53,0,0,0-21,0h0v7.27a41.84,41.84,0,0,0-10.8,4.47L32,110.2a10.52,10.52,0,0,0-14.87,14.89l5.13,5.13A41.69,41.69,0,0,0,17.8,141H10.54a10.52,10.52,0,1,0,0,21h7.3a41.49,41.49,0,0,0,4.47,10.8L17.14,178A10.52,10.52,0,0,0,32,192.87l5.14-5.13A41.84,41.84,0,0,0,48,192.21v7.26a10.53,10.53,0,0,0,21,0v-7.26a42,42,0,0,0,10.8-4.47l5.13,5.13A10.52,10.52,0,0,0,99.81,178l-5.14-5.13a41.49,41.49,0,0,0,4.47-10.8h7.27a10.52,10.52,0,0,0,0-21ZM43.6,166.41a21.07,21.07,0,0,1,0-29.74h0a21,21,0,1,1,0,29.74Z"/></g></g></g></svg>