<svg xmlns="http://www.w3.org/2000/svg" viewBox="0 0 94.07 94.07"><defs><style>.cls-1{fill:#fff;}</style></defs><g id="Layer_2" data-name="Layer 2"><g id="Layer_1-2" data-name="Layer 1"><path class="cls-1" d="M4.25,94.07A4.25,4.25,0,0,1,0,89.82V61.3a4.25,4.25,0,0,1,4.25-4.25H28.52V32.77a4.26,4.26,0,0,1,4.25-4.25H57.05V4.25A4.25,4.25,0,0,1,61.3,0H89.82a4.25,4.25,0,0,1,0,8.5H65.55V32.77A4.25,4.25,0,0,1,61.3,37H37V61.3a4.25,4.25,0,0,1-4.25,4.25H8.5V89.82A4.25,4.25,0,0,1,4.25,94.07Z"/></g></g></svg>