<svg xmlns="http://www.w3.org/2000/svg" viewBox="0 0 109.97 101.93"><defs><style>.cls-1{fill:#fff;}</style></defs><g id="Layer_2" data-name="Layer 2"><g id="Layer_1-2" data-name="Layer 1"><g id="Corporates_144" data-name="Corporates 144"><g id="Group_892" data-name="Group 892"><path id="Path_335" data-name="Path 335" class="cls-1" d="M68.22,15.5A15.49,15.49,0,1,0,43.91,28.22a15.47,15.47,0,0,0-6.66,12.71V53.65a2.77,2.77,0,1,0,5.54,0V40.93a9.95,9.95,0,0,1,19.89,0V53.65a2.77,2.77,0,1,0,5.54.06V40.93a15.5,15.5,0,0,0-6.66-12.72A15.47,15.47,0,0,0,68.22,15.5ZM52.73,25.44a9.95,9.95,0,1,1,10-9.94h0A10,10,0,0,1,52.73,25.44Z"/><path id="Path_336" data-name="Path 336" class="cls-1" d="M31.65,12.44a2.77,2.77,0,1,0,0-5.54A12,12,0,0,0,24,28.21a12.06,12.06,0,0,0-4.37,9.27v9.28a2.78,2.78,0,0,0,5.55,0V37.48A6.5,6.5,0,0,1,31.65,31a2.78,2.78,0,0,0,0-5.55,6.5,6.5,0,0,1,0-13Z"/><path id="Path_337" data-name="Path 337" class="cls-1" d="M81.5,28.21A12,12,0,0,0,73.82,6.9a2.77,2.77,0,1,0,0,5.54,6.5,6.5,0,0,1,0,13,2.78,2.78,0,0,0,0,5.55,6.5,6.5,0,0,1,6.5,6.49v9.28a2.77,2.77,0,1,0,5.54,0h0V37.48A12.05,12.05,0,0,0,81.5,28.21Z"/></g></g><path class="cls-1" d="M109.42,69.45a9.48,9.48,0,0,1-4.89,5.47L51.42,100.4a15.64,15.64,0,0,1-11.34.84l-25.84-8-1-.15H2.92A2.89,2.89,0,0,1,.05,90.86,2.82,2.82,0,0,1,2.81,87.5H14.18a2.92,2.92,0,0,1,.83.12l26.73,8.25A10,10,0,0,0,49,95.33l53.1-25.48a3.93,3.93,0,0,0,2-2.26,4,4,0,0,0-5.44-4.89l-31,14.68h0a9.59,9.59,0,0,1-7.85,4.07H36a1.57,1.57,0,0,0-.94.3l-2.36,1.69a2.79,2.79,0,0,1-1.64.53,2.81,2.81,0,0,1-1.64-5.1l3.52-2.52a2.81,2.81,0,0,1,1.63-.53H59.64a4.15,4.15,0,0,0,4.2-3.64,4,4,0,0,0-4-4.38H38.66a2.82,2.82,0,0,1-1.18-.26l-17-7.93a5.09,5.09,0,0,0-2.17-.48H2.92A2.89,2.89,0,0,1,.05,56.88a2.82,2.82,0,0,1,2.76-3.36H20a2.83,2.83,0,0,1,1.19.26l18.06,8.41H59.84a9.66,9.66,0,0,1,9.52,8.12,0,0,0,0,0,0,0L96.27,57.61A9.61,9.61,0,0,1,109,62.12,9.47,9.47,0,0,1,109.42,69.45Z"/></g></g></svg>