<svg xmlns="http://www.w3.org/2000/svg" viewBox="0 0 192.31 168.27"><defs><style>.cls-1{fill:#fff;}</style></defs><g id="Layer_2" data-name="Layer 2"><g id="Layer_1-2" data-name="Layer 1"><path class="cls-1" d="M178.46,37.47,126.2,70.72V45.07a9,9,0,0,0-13.85-7.6L60.1,70.72V9a9,9,0,0,0-9-9H9A9,9,0,0,0,0,9V159.26a9,9,0,0,0,9,9H183.29a9,9,0,0,0,9-9V45.07a9,9,0,0,0-13.85-7.6m-4.18,112.77H18V18h24V87.14a9,9,0,0,0,13.85,7.6l52.25-33.25V87.14A9,9,0,0,0,122,94.74l52.25-33.25Zm-22.54-18h-15a4.5,4.5,0,0,1-4.51-4.5v-15a4.51,4.51,0,0,1,4.51-4.51h15a4.51,4.51,0,0,1,4.51,4.51v15a4.5,4.5,0,0,1-4.51,4.5m-48.07,0h-15a4.5,4.5,0,0,1-4.51-4.5v-15a4.51,4.51,0,0,1,4.51-4.51h15a4.5,4.5,0,0,1,4.5,4.51v15a4.49,4.49,0,0,1-4.5,4.5m-48.08,0h-15a4.5,4.5,0,0,1-4.5-4.5v-15a4.51,4.51,0,0,1,4.5-4.51h15a4.51,4.51,0,0,1,4.51,4.51v15a4.5,4.5,0,0,1-4.51,4.5"/></g></g></svg>