<svg xmlns="http://www.w3.org/2000/svg" viewBox="0 0 253.42 212.81"><defs><style>.cls-1{fill:#fff;}</style></defs><g id="Layer_2" data-name="Layer 2"><g id="Layer_1-2" data-name="Layer 1"><g id="Group_405" data-name="Group 405"><path id="Path_267" data-name="Path 267" class="cls-1" d="M57.2,212.81A57.27,57.27,0,0,1,0,155.6a9.53,9.53,0,0,1,9.53-9.53h95.35a9.53,9.53,0,0,1,9.53,9.53A57.28,57.28,0,0,1,57.2,212.81ZM20.27,165.13a38.14,38.14,0,0,0,73.86,0Z"/><path id="Path_268" data-name="Path 268" class="cls-1" d="M92,165.14a9.55,9.55,0,0,1-9-6.55L57.28,81.17,32.12,158.55A9.53,9.53,0,1,1,14,152.78s0-.08,0-.13l34.14-105a9.53,9.53,0,0,1,9-6.59h0a9.54,9.54,0,0,1,9,6.54L101,152.6a9.55,9.55,0,0,1-6.08,12.06,9.44,9.44,0,0,1-3,.48Z"/><path id="Path_269" data-name="Path 269" class="cls-1" d="M196.22,212.81A57.28,57.28,0,0,1,139,155.6a9.53,9.53,0,0,1,9.54-9.53h95.34a9.52,9.52,0,0,1,9.53,9.53h0A57.27,57.27,0,0,1,196.22,212.81Zm-36.93-47.68a38.14,38.14,0,0,0,73.86,0Z"/><path id="Path_270" data-name="Path 270" class="cls-1" d="M231,165.14a9.55,9.55,0,0,1-9.05-6.55L196.3,81.17l-25.16,77.38A9.53,9.53,0,1,1,153,152.78s0-.08,0-.13l34.14-105a9.53,9.53,0,0,1,9-6.59h0a9.54,9.54,0,0,1,9.05,6.54L240,152.6A9.55,9.55,0,0,1,234,164.66a9.44,9.44,0,0,1-3,.48Z"/><path id="Path_271" data-name="Path 271" class="cls-1" d="M196.22,60.11H57.2A9.54,9.54,0,1,1,57.2,41h139a9.54,9.54,0,0,1,0,19.07Z"/><path id="Path_272" data-name="Path 272" class="cls-1" d="M126.71,60.11a9.53,9.53,0,0,1-9.53-9.53v-41a9.54,9.54,0,1,1,19.07,0v41a9.54,9.54,0,0,1-9.54,9.53Z"/></g></g></g></svg>