<svg xmlns="http://www.w3.org/2000/svg" viewBox="0 0 35.83 21.08"><defs><style>.cls-1{fill:#333;}</style></defs><g id="Layer_2" data-name="Layer 2"><g id="Layer_1-2" data-name="Layer 1"><path id="Path_312" data-name="Path 312" class="cls-1" d="M17.91,21.08A10.54,10.54,0,1,1,28.45,10.54,10.54,10.54,0,0,1,17.91,21.08Zm0-18.38a7.84,7.84,0,1,0,7.85,7.84h0A7.85,7.85,0,0,0,17.91,2.7Z"/><path id="Path_313" data-name="Path 313" class="cls-1" d="M17.91,21.08C8.23,21.08.61,11.78.3,11.39a1.35,1.35,0,0,1,0-1.7C.62,9.29,8.23,0,17.91,0s17.3,9.3,17.62,9.69a1.35,1.35,0,0,1,0,1.7C35.21,11.78,27.6,21.08,17.91,21.08ZM3.15,10.54c2,2.18,8,7.84,14.76,7.84s12.73-5.66,14.77-7.84c-2-2.19-8-7.85-14.77-7.85S5.19,8.35,3.15,10.54Z"/></g></g></svg>