<svg xmlns="http://www.w3.org/2000/svg" viewBox="0 0 103.33 91.11"><defs><style>.cls-1{fill:#fff;}</style></defs><g id="Layer_2" data-name="Layer 2"><g id="Layer_1-2" data-name="Layer 1"><path class="cls-1" d="M93.33,12.33H68.55V10a10,10,0,0,0-10-10H45.22a10,10,0,0,0-10,10v2.33H10a10,10,0,0,0-10,10V76.67a10,10,0,0,0,10,10h7.23a8.45,8.45,0,0,0,14.87,0H72.67a8.45,8.45,0,0,0,14.87,0h5.79a10,10,0,0,0,10-10V22.33A10,10,0,0,0,93.33,12.33ZM20.66,78.67H10a2,2,0,0,1-2-2V22.33a2,2,0,0,1,2-2H20.66ZM43.22,10a2,2,0,0,1,2-2H58.55a2,2,0,0,1,2,2v2.33H43.22ZM28.66,78.67V20.33H76.11V78.67Zm66.67-2a2,2,0,0,1-2,2H84.11V20.33h9.22a2,2,0,0,1,2,2Z"/></g></g></svg>