<svg xmlns="http://www.w3.org/2000/svg" viewBox="0 0 240.32 229.57"><defs><style>.cls-1{fill:#fff;}</style></defs><g id="Layer_2" data-name="Layer 2"><g id="Layer_1-2" data-name="Layer 1"><path class="cls-1" d="M120.16,159.56a10.45,10.45,0,0,1,6.12,2l41.88,30.35-15.95-49.18A10.43,10.43,0,0,1,156,131.07l41.84-30.48H146.1a10.44,10.44,0,0,1-9.92-7.21l-16-49.23-16,49.23a10.44,10.44,0,0,1-9.92,7.21H42.49l41.84,30.48a10.42,10.42,0,0,1,3.78,11.65l-16,49.18L114,161.55A10.42,10.42,0,0,1,120.16,159.56Zm67.81,70a10.46,10.46,0,0,1-6.12-2l-61.69-44.7-61.69,44.7a10.44,10.44,0,0,1-16-11.67l23.51-72.44L4.29,98.59a10.43,10.43,0,0,1,6.15-18.87h76.2l23.6-72.52a10.43,10.43,0,0,1,19.84,0l23.6,72.52h76.2A10.43,10.43,0,0,1,236,98.59L174.4,143.48l23.5,72.44A10.43,10.43,0,0,1,188,229.57Z"/></g></g></svg>